<?xml version="1.0" standalone="no"?>
<!DOCTYPE svg PUBLIC "-//W3C//DTD SVG 1.1//EN" "http://www.w3.org/Graphics/SVG/1.1/DTD/svg11.dtd" >
<svg xmlns="http://www.w3.org/2000/svg">
<metadata>
Created by FontForge 20120731 at Fri Jul 14 22:21:43 2017
 By admin
</metadata>
<defs>
<font id="iconfont" horiz-adv-x="1024" >
  <font-face 
    font-family="iconfont"
    font-weight="500"
    font-stretch="normal"
    units-per-em="1024"
    panose-1="2 0 6 3 0 0 0 0 0 0"
    ascent="896"
    descent="-128"
    x-height="792"
    bbox="0 -212 1454 1180"
    underline-thickness="0"
    underline-position="0"
    unicode-range="U+0078-E879"
  />
<missing-glyph 
 />
    <glyph glyph-name=".notdef" 
 />
    <glyph glyph-name=".notdef" 
 />
    <glyph glyph-name=".null" horiz-adv-x="0" 
 />
    <glyph glyph-name="nonmarkingreturn" horiz-adv-x="341" 
 />
    <glyph glyph-name="x" unicode="x" horiz-adv-x="1001" 
d="M281 543q-27 -1 -53 -1h-83q-18 0 -36.5 -6t-32.5 -18.5t-23 -32t-9 -45.5v-76h912v41q0 16 -0.5 30t-0.5 18q0 13 -5 29t-17 29.5t-31.5 22.5t-49.5 9h-133v-97h-438v97zM955 310v-52q0 -23 0.5 -52t0.5 -58t-10.5 -47.5t-26 -30t-33 -16t-31.5 -4.5q-14 -1 -29.5 -0.5
t-29.5 0.5h-32l-45 128h-439l-44 -128h-29h-34q-20 0 -45 1q-25 0 -41 9.5t-25.5 23t-13.5 29.5t-4 30v167h911zM163 247q-12 0 -21 -8.5t-9 -21.5t9 -21.5t21 -8.5q13 0 22 8.5t9 21.5t-9 21.5t-22 8.5zM316 123q-8 -26 -14 -48q-5 -19 -10.5 -37t-7.5 -25t-3 -15t1 -14.5
t9.5 -10.5t21.5 -4h37h67h81h80h64h36q23 0 34 12t2 38q-5 13 -9.5 30.5t-9.5 34.5q-5 19 -11 39h-368zM336 498v228q0 11 2.5 23t10 21.5t20.5 15.5t34 6h188q31 0 51.5 -14.5t20.5 -52.5v-227h-327z" />
    <glyph glyph-name="share6" unicode="&#xe603;" 
d="M512 812q-139 0 -257 -68.5t-186.5 -186.5t-68.5 -257t68.5 -257t186.5 -186.5t257 -68.5t257 68.5t186.5 186.5t68.5 257t-68.5 257t-186.5 186.5t-257 68.5zM618 184q26 19 57 19q39 0 67 -27.5t28 -67t-28 -67t-67 -27.5t-66.5 27.5t-27.5 67.5v0l-242 116
q-23 -15 -51 -15q-39 0 -66.5 27.5t-27.5 67t27.5 67t66.5 27.5q33 0 59 -20l234 112v0q0 40 27.5 67.5t66.5 27.5t67 -27.5t28 -67t-28 -67t-67 -27.5q-31 0 -57 19l-235 -114v-4z" />
    <glyph glyph-name="llalbumshopselectorcancel" unicode="&#xe600;" 
d="M600 415l357 357q7 8 7 18.5t-7 17.5l-18 18q-7 7 -17.5 7t-18.5 -7l-357 -357l-357 357q-7 7 -17.5 7t-18.5 -7l-17 -18q-8 -7 -8 -17.5t8 -18.5l357 -357l-357 -357q-8 -7 -8 -17.5t8 -17.5l17 -18q8 -8 18.5 -8t17.5 8l357 357l357 -357q8 -8 18.5 -8t17.5 8l18 18
q7 7 7 17.5t-7 17.5z" />
    <glyph glyph-name="yhq" unicode="&#xe635;" horiz-adv-x="1484" 
d="M0 613q0 43 14 63q14 18 63 18h202v-807h-87h-68q-43 1 -46 1q-43 -2 -60.5 14.5t-17.5 61.5v233q0 17 5.5 26t23.5 12q5 0 17 5q11 5 22 16t19 27q8 17 8 41q0 37 -20 58q-20 22 -42 25q-17 3 -25 10q-8 8 -8 25v171v0zM131 767v42q0 32 24.5 59.5t52.5 27.5h218v-129
h-295zM1416 416q-13 -3 -18 -14q-6 -11 -6 -23t6 -25q5 -12 18 -17t20 -19q7 -15 7 -31q1 -16 -3 -31q-5 -14 -15 -21q-31 -19 -31 -43q0 -25 31 -49q6 -4 12 -17q6 -14 6 -26q0 -14 -7 -23q-6 -10 -22 -10h-85q-9 0 -10 2q0 2 2.5 6t7.5 9q5 4 8 11q8 23 0 39t-27 27
q-13 7 -18 21q-5 13 -4 28q0 15 5 26t14 16q13 5 19 18q6 12 6 27q0 13 -4 27q-5 12 -15 17q-12 7 -19 19t-7 28.5t6 31.5q6 16 20 25q10 7 16 18q6 10 7 24q1 12 -4 25q-6 12 -20 20q-16 9 -23 24q-7 16 -7 31.5t7 30.5t20 23q27 15 29 39q2 26 -4 46q-5 17 -19 30
q-14 12 -36 12h-757v128h888q10 0 18 -8q9 -8 11 -20q2 -11 -2 -23t-15 -20q-10 -9 -16 -21q-7 -12 -8 -27q-1 -13 4 -27q4 -14 17 -21q17 -9 26 -26t9 -34t-9 -31.5t-24 -20.5q-18 -7 -26 -19q-7 -11 -8 -27q-1 -14 6 -28t23 -23q16 -10 23 -26q6 -16 6 -32q-1 -16 -8 -30
t-21 -16v0zM1211 441q-19 -5 -29 -19t-11 -28q-1 -15 8 -30q9 -14 26 -20q16 -7 23 -20q8 -13 9 -27.5t-5.5 -27.5t-18.5 -19q-40 -20 -41 -47q-2 -27 29 -44q15 -6 23 -20q9 -13 10 -29q1 -15 -6 -27q-6 -12 -20 -18q-19 -4 -30 -17q-9 -13 -10 -27q-1 -15 8 -30
q8 -14 27 -24q12 -6 18 -20t4 -27t-9 -23q-6 -11 -19 -11h-825v808h834q13 0 20 -10q7 -11 8 -24t-6 -26q-6 -13 -20 -17q-14 -5 -23 -17q-9 -10 -11 -25q-1 -13 7 -26t27 -19q14 -7 23 -20q9 -14 9 -26q1 -14 -6 -27q-7 -12 -23 -16v0zM831 332q-8 0 -17 2q-8 2 -4 10
q1 0 3 3t5.5 8t6.5 11q15 22 30 41q5 6 15.5 20t15.5 22q16 21 17 24q8 12 -9 30q-3 4 -13 10q-9 7 -17 10q-13 5 -18 1q-6 -3 -13 -14q-1 -1 -3.5 -4.5t-5.5 -8.5t-7 -10q-4 -6 -27 -40q-12 -18 -26 -38q-12 -17 -13 -20q-4 -7 -12 -5q-9 2 -12 8q-3 5 -14 19
q-14 16 -27 34q-9 13 -28 37q-12 15 -18 23q-14 28 -30 18q-10 -6 -20 -14q-8 -7 -16 -12q-16 -11 -5 -29q29 -35 48 -60q20 -26 33 -44q14 -19 18 -24q4 -6 -6 -6h-19q-9 0 -22 -1q-16 -1 -28 1q-13 0 -21 -7q-8 -6 -4 -16q1 -7 1 -19v-20q0 -8 5 -8q4 -1 11 -1h91
q19 0 19 -8v-31q0 -8 -3 -8h-106q-9 2 -12 -5q-3 -6 -4.5 -14.5t-0.5 -15.5q2 -6 2 -12q0 -21 20 -21h95q8 0 9 -2q2 -3 2 -11q2 -9 1 -29q-1 -25 -1 -27q0 -18 20 -18h51q13 0 13 8v65q0 16 14 16h14q13 0 24 1q19 1 26 1h21q22 0 22 16v35q0 15 -16 15h-91q-16 -4 -16 6
q0 6 -1 12t-1 14q0 7 6 9q5 4 12 4h93q15 0 15 11v39q0 6 -5 13q-5 6 -13 6h-54z" />
    <glyph glyph-name="dianhua" unicode="&#xe602;" 
d="M922 154q0 -110 -69 -132t-341 -22t-341 22t-69 132q0 50 21 115.5t59.5 132t88 123t113.5 92.5t128 36t128 -36t113.5 -92.5t88 -123t59.5 -132t21 -115.5v0v0zM512 582q-72 0 -122.5 -50t-50.5 -122t50.5 -122.5t122.5 -50.5t122.5 50.5t50.5 122.5t-50.5 122
t-122.5 50v0v0zM154 454q28 47 62.5 86.5t79.5 75t100.5 55.5t115.5 20q59 0 117 -22t103.5 -58t80 -76t57.5 -81q25 -37 60.5 -35.5t55.5 35.5q5 9 8.5 28.5t0.5 49.5t-16 62t-47 64.5t-84.5 58t-137.5 41.5t-198 16q-87 0 -159.5 -10t-122 -27t-87.5 -40t-59 -48t-35 -51
t-17.5 -49.5t-3.5 -43.5t3.5 -33t6.5 -18q18 -23 44 -27.5t45.5 5t26.5 22.5v0v0z" />
    <glyph glyph-name="shoucang" unicode="&#xe68c;" 
d="M511 854q92 0 175 -36t143.5 -97.5t96 -146.5t35.5 -178t-35.5 -178t-96 -146.5t-143.5 -98t-174.5 -36.5t-175 36.5t-144 98t-96 146.5t-35.5 178t35.5 178t96 146.5t144 97.5t174.5 36v0zM341 340q-1 -4 -2.5 -12t-1.5 -9l-20 -124q-3 -12 -3 -24.5t8 -23.5q1 -2 4 -5
q2 -3 6 -5q10 -8 22 -8q15 0 27 7q1 0 2.5 1t2.5 2q3 2 11 6t12 7q5 3 15 8t13 7q4 2 4 3q1 0 2.5 1t2.5 1l60 34q5 2 6 2t8 -4l51 -29q1 0 2.5 -1t2.5 -1l11 -7q1 0 1.5 -0.5l1 -1t1.5 -0.5t1 -0.5t1 -0.5t1 -1l24 -13q1 0 2.5 -1l1.5 -1l19 -11q22 -12 43 -3q3 1 7 4
q9 7 13 17q2 2 3 7q2 8 0 23l-5 31q-1 4 -2 10q0 2 -0.5 5.5t-0.5 5.5q-2 10 -5 28.5t-4 23.5q-1 4 -2.5 12.5t-2.5 15.5l-2 14q0 1 -0.5 4.5t-0.5 5.5q0 1 16 17l6 6q3 3 27 28l4 4v0l3 3q5 5 14 14.5t13 12.5l2 3l0.5 0.5l0.5 0.5l4 4q24 25 26 28l2 2q11 17 4 37t-26 27
q-10 3 -42 7l-70 11q-3 0 -8 1t-6 1l-29 4q-1 1 -3 1q-3 0 -5 4l-1 2l-21 45q-1 2 -2.5 6t-2.5 5l-11 23q-2 5 -7.5 16.5t-7.5 17.5l-6 11q-9 19 -11 21q-4 5 -8 9q-14 11 -31.5 8t-28.5 -17q-5 -6 -21 -42q-2 -4 -8 -16.5t-8 -17.5q-1 -5 -5.5 -13.5t-6.5 -12.5l-19 -42
q-3 -6 -3.5 -6.5t-13.5 -2.5l-54 -8q-2 0 -5.5 -0.5t-5.5 -1.5l-43 -6q-1 0 -2.5 -0.5t-2.5 -0.5q-31 -4 -36 -7q-15 -6 -23 -21l-2 -5q-8 -20 6 -39q2 -3 24 -26l9 -9l3 -3l23 -23q4 -5 15 -16t16 -17l2 -2l12 -12l13 -13v0z" />
    <glyph glyph-name="jiantouxia" unicode="&#xe679;" 
d="M511 139q22 -1 37 14l396 395q14 14 14 34t-14 34t-34 14t-34 -14l-365 -365l-365 365q-14 14 -33.5 14t-33.5 -14t-14 -34t14 -34l395 -395q15 -15 37 -14v0v0zM511 139z" />
    <glyph glyph-name="zonglan" unicode="&#xe851;" 
d="M64 31h896v-95h-896v83v12zM64 502v-47h47v-377h95v377h47v47h-189zM300 502v-47h47v-377h94v377h47v47h-188zM536 502v-47h47v-377h94v377h47v47h-188zM771 502v-47h47v-377h95v377h47v47h-189zM488 832l-424 -283h896zM549 617h-74q-9 0 -15 7.5t-6 18.5v53
q0 11 6 18.5t15 7.5h74q9 0 15 -7.5t6 -18.5v-53q0 -11 -6 -18.5t-15 -7.5z" />
    <glyph glyph-name="shouji" unicode="&#xe633;" 
d="M354 698zM658 -65h-530q-22 0 -38 16t-16 39v623q0 23 16 39t38 16v0h451q12 0 20 -8.5t8 -20t-8 -19.5t-20 -8h-449v-621h526v786h-526v-56q0 -11 -8.5 -19.5t-20 -8.5t-19.5 8.5t-8 19.5v58q0 23 16 39t38 16h530q22 0 38 -16t16 -39v-789q0 -23 -16 -39t-38 -16z
M276 727zM676 132h-559q-1 0 -1 1v39q0 2 1 2h559q1 0 1 -2v-39q0 -1 -1 -1zM396.5 117q-23.5 0 -40 -16t-16.5 -39.5t16.5 -40t40 -16.5t40 16.5t16.5 40t-16.5 39.5t-40 16zM396.5 33q-11.5 0 -19.5 8.5t-8 20t8 20t19.5 8.5t20 -8.5t8.5 -20t-8.5 -20t-20 -8.5zM479 693
h-207q-2 0 -2 2v52q0 2 2 2h207q2 0 2 -2v-52q0 -2 -2 -2z" />
    <glyph glyph-name="hricon39" unicode="&#xe640;" 
d="M862 534.5q0 16.5 -11.5 28t-28 11.5t-27.5 -12l-288 -288q-4 -4 -9 0l-288 288q-11 12 -27.5 12t-28 -11.5t-11.5 -28t12 -27.5l288 -288q24 -25 59.5 -25t59.5 25l288 288q12 11 12 27.5z" />
    <glyph glyph-name="add" unicode="&#xe63c;" 
d="M455 441h-341q-24 0 -40.5 -16.5t-16.5 -40.5t16.5 -40.5t40.5 -16.5h341v-341q0 -24 16.5 -40.5t40.5 -16.5t40.5 16.5t16.5 40.5v341h341q24 0 40.5 16.5t16.5 40.5t-16.5 40.5t-40.5 16.5h-341v341q0 24 -16.5 40.5t-40.5 16.5t-40.5 -16.5t-16.5 -40.5v-341z" />
    <glyph glyph-name="youjiantou" unicode="&#xe632;" 
d="M306 832q12 -1 24 -7.5t18 -11.5t18 -18q40 -39 112.5 -112t132 -132.5t112.5 -111.5q33 -33 32.5 -61t-33.5 -60q-63 -61 -179 -177l-166 -166q-1 -1 -3 -4q-12 -11 -18.5 -16.5t-18 -12t-22.5 -4t-22 13.5t-13.5 22.5t4.5 24t13 19l18 19.5q207 210 286 286
q32 31 31.5 55.5t-31.5 54.5q-81 78 -306 306q-7 7 -11.5 12t-9.5 12.5t-6.5 14t-1.5 15t4 17.5q9 21 36 22z" />
    <glyph glyph-name="shijian" unicode="&#xe628;" 
d="M512 896q-138 0 -256 -69t-187 -187t-69 -256t69 -256t187 -187t256 -69t256 69t187 187t69 256t-69 256t-187 187t-256 69zM853 341h-341q-19 0 -31 12t-12 31v346q0 20 12 31.5t31 11.5t31 -11.5t12 -31.5v-303h298q19 0 31 -12t12 -31t-11.5 -31t-31.5 -12z" />
    <glyph glyph-name="dianzan" unicode="&#xe60f;" 
d="M215 487h-163q-16 0 -24.5 -8.5t-9.5 -17.5l-1 -8l35 -547q0 -15 9.5 -23.5t15 -9.5t9.5 -1h142q13 0 20.5 5.5t8.5 10.5l1 6v550q-2 19 -12.5 30t-20.5 12zM938 487h-271q21 79 28.5 144.5t2 106.5t-16.5 72.5t-26 47t-28.5 25t-23.5 11.5l-9 2q-27 0 -42 -10t-18 -21
t-3.5 -24t-1.5 -14q0 -53 -20.5 -107.5t-50.5 -94.5t-59.5 -72t-50.5 -49l-21 -17v-542q0 -24 20 -41.5t43 -24.5t40 -7h405q17 0 34 25.5t26 48t9 25.5q44 153 68.5 267.5t27 141.5t2.5 38q4 60 -50 68z" />
    <glyph glyph-name="lajitong" unicode="&#xe62b;" 
d="M608 128q-13 0 -22.5 9.5t-9.5 22.5v352q0 13 9.5 22.5t22.5 9.5t22.5 -9.5t9.5 -22.5v-352q0 -13 -9.5 -22.5t-22.5 -9.5zM416 128q-13 0 -22.5 9.5t-9.5 22.5v352q0 13 9.5 22.5t22.5 9.5t22.5 -9.5t9.5 -22.5v-352q0 -13 -9.5 -22.5t-22.5 -9.5zM928 672h-160v64
q0 40 -28 68t-67 28h-321q-40 0 -68 -28t-28 -68v-64h-160q-13 0 -22.5 -9.5t-9.5 -22.5t9.5 -22.5t22.5 -9.5h832q13 0 22.5 9.5t9.5 22.5t-9.5 22.5t-22.5 9.5zM320 736q0 13 9.5 22.5t22.5 9.5h321q13 0 22 -9.5t9 -22.5v-64h-384v64zM736 -64h-448q-40 0 -68 28t-28 68
v480q0 14 9.5 23t22.5 9t22.5 -9t9.5 -23v-480q0 -13 9.5 -22.5t22.5 -9.5h448q13 0 22.5 9.5t9.5 22.5v479q0 13 9.5 22.5t22.5 9.5t22.5 -9.5t9.5 -22.5v-479q0 -40 -28 -68t-68 -28z" />
    <glyph glyph-name="baoliu" unicode="&#xe879;" 
d="M943 219l-144 -171h-255q-16 0 -42.5 14t-54.5 27t-63 20.5t-80 -7t-93 -53.5q-143 156 -147 159q242 120 256 128q40 20 80.5 24t65 -2.5t48 -14t30.5 -7.5h191q10 0 20 -7.5t15.5 -19.5t6 -25t-10 -25.5t-31.5 -18.5h-159l-0.5 -3t1.5 -8t4.5 -9.5t9.5 -8t17 -3.5h159
q80 69 92 82q12 16 25 16.5t19 -6.5l7 -7q3 0 8.5 -0.5t17.5 -3.5t18 -10t5 -22.5t-16 -37.5zM831 656h-160v-128h-159v128h-160v-224q-5 -2 -20 -10.5t-25 -13.5t-19 -8v320h607v-384q-3 0 -26.5 16t-37.5 16v288z" />
    <glyph glyph-name="jinpai" unicode="&#xe660;" 
d="M128 -128h256l85 160h96l75 -160h256l-192 232l-384 4zM256 448v0q0 -106 75 -181t181 -75t181 75t75 181t-75 181t-181 75t-181 -75t-75 -181v0zM64 448q0 122 60 225t163 163t225 60t225 -60t163 -163t60 -225t-60 -225t-163 -163t-225 -60t-225 60t-163 163t-60 225v0
z" />
    <glyph glyph-name="gengduo" unicode="&#xe627;" 
d="M104 591q-18 0 -30 12t-12 29v24q0 18 12 30t30 12h813q18 0 30 -12t12 -30v-24q0 -17 -12 -29t-30 -12h-813zM104 280q-18 0 -30 12t-12 29v24q0 18 12 30t30 12h813q18 0 30 -12t12 -30v-24q0 -17 -12 -29t-30 -12h-813zM104 -63q-18 0 -30 12t-12 29v24q0 17 12 29
t30 12h813q18 0 30 -12t12 -29v-24q0 -17 -12 -29t-30 -12h-813v0zM104 -63z" />
    <glyph glyph-name="yongjin" unicode="&#xe708;" 
d="M294 806q34 -24 54 -52q6 -10 17 -23t19 -21l8 -7h231q25 25 40 45q1 1 5 6.5t5 6.5t4.5 6t5.5 7t5.5 6t6.5 6.5t6.5 6t7.5 6t9 5.5q19 12 22.5 33t-17.5 30q-14 6 -34 -2.5t-32 -8.5q-16 0 -33.5 15.5t-29.5 19.5q-24 7 -35.5 3t-26.5 -18q-8 -7 -14 -11.5t-8 -5.5
l-2 -1q-21 13 -33 25q-8 10 -26.5 12t-33.5 -6q-9 -6 -18.5 -14t-16 -12t-15.5 -6t-27 3t-29.5 8t-24.5 -4q-14 -14 -9.5 -30t19.5 -28v0zM768 500q-38 32 -71.5 67.5t-47.5 54.5l-14 19h-253q-48 -72 -126 -139q-74 -64 -113 -154.5t-20 -194.5q9 -51 37.5 -99.5t75 -90
t117.5 -66.5t157 -25q165 0 267.5 77.5t123.5 197.5q36 211 -133 353v0zM633 110h-30h-43h-19v-32t-9 -19.5t-22 -8.5q-30 0 -32 29v31h-93q-11 0 -18.5 9.5t-6.5 19.5q0 10 7.5 18t17.5 8h93v64q-76 -1 -90 -1q-10 0 -17 6.5t-7 16.5q-1 10 7 23t17 13h90l1 23
q-72 76 -81 84q-8 8 -10.5 18.5t5.5 23.5q11 10 24.5 6.5t23.5 -12.5l69 -71q67 62 81 73q11 9 23 9t20 -9q15 -18 -10 -41l-83 -82v-21h86q14 0 22.5 -11.5t8.5 -22.5q-1 -25 -30 -25h-86l-1 -63h85q31 0 32 -27q0 -11 -7.5 -20t-17.5 -9v0v0zM633 110z" />
    <glyph glyph-name="shangjiantou" unicode="&#xe612;" horiz-adv-x="1025" 
d="M480 628q13 13 32 12q19 1 32 -12l467 -427q13 -12 13 -30t-12.5 -30.5t-30.5 -12.5t-30 13l-439 395l-439 -395q-12 -13 -30 -13t-30.5 12.5t-12.5 30.5t13 30zM480 628z" />
    <glyph glyph-name="yduifuxuankuang" unicode="&#xe686;" 
d="M832 767q28 0 45.5 -17.5t17.5 -45.5v-640q0 -28 -17.5 -45.5t-45.5 -17.5h-640q-28 0 -45.5 17.5t-17.5 45.5v640q0 28 17.5 45.5t45.5 17.5h640zM832 831h-640q-52 0 -89.5 -37.5t-37.5 -89.5v-640q0 -52 37.5 -89.5t89.5 -37.5h640q52 0 89.5 37.5t37.5 89.5v640
q0 52 -37.5 89.5t-89.5 37.5v0v0zM832 831z" />
    <glyph glyph-name="tousujianyi" unicode="&#xe677;" 
d="M232 832q-70 0 -119 -49t-49 -119v-559q0 -70 49 -119t119 -49h448q69 0 118 49t49 119v307l-55 -56v-251q0 -47 -33 -79.5t-79 -32.5h-448q-47 0 -79.5 32.5t-32.5 79.5v559q0 47 32.5 79.5t79.5 32.5h364l56 56h-420v0zM232 832zM764 832l-431 -431l-79 -235l39 -39
l235 78l431 431l-195 196v0zM764 754l117 -118l-392 -391l-170 -66l-12 13l65 170l392 392v0zM764 754z" />
    <glyph glyph-name="ai-password" unicode="&#xe63e;" 
d="M320 576q0 80 56 136t136 56t136 -56t56 -136q0 -31 -12 -64h140v64q0 133 -93.5 226.5t-226.5 93.5t-226.5 -93.5t-93.5 -226.5v-64h140q-12 33 -12 64zM832 512h-640q-53 0 -90.5 -37.5t-37.5 -90.5v-384q0 -53 37.5 -90.5t90.5 -37.5h640q53 0 90.5 37.5t37.5 90.5
v384q0 53 -37.5 90.5t-90.5 37.5zM576 146v-82q0 -26 -19 -45t-45 -19t-45 19t-19 45v82q-29 17 -46.5 46t-17.5 64q0 53 37.5 90.5t90.5 37.5t90.5 -37.5t37.5 -90.5q0 -35 -17.5 -64t-46.5 -46z" />
    <glyph glyph-name="tuikuan" unicode="&#xe747;" 
d="M504.5 880q-102.5 0 -196 -40t-161 -107.5t-107 -161t-39.5 -196t39.5 -195.5t107 -160.5t161 -107.5t196 -40t195.5 40t160.5 107.5t107.5 160.5t40 195.5t-40 196t-107.5 161t-160.5 107.5t-195.5 40zM852 229q-28 -68 -80.5 -120t-120.5 -81q-70 -30 -147 -30
q-63 0 -122 20q-57 20 -105 57q-48 36 -83 85q-34 50 -52 108l49 14q30 -103 118 -168t195 -65q89 0 164.5 43.5t119.5 119t44 164.5t-44 164t-119.5 119t-164.5 44q-128 0 -222 -87.5t-104 -214.5h125v-50h-151q-11 0 -18 7t-7 18q0 77 29 147q29 68 81.5 120t119.5 81
q71 29 147.5 29t146.5 -29q68 -29 120.5 -81t80.5 -120q30 -70 30 -147t-30 -147zM353 401v50h151q-10 0 -17 8l-101 100l35 36l83 -83l83 83l36 -36l-101 -100q-7 -8 -18 -8h151v-50h-125v-101h125v-50h-125v-126h-51v126h-126v50h126v101h-126z" />
    <glyph glyph-name="duihao" unicode="&#xe609;" 
d="M127 400l225 -179l559 515q1 1 4 3.5t11 7t16 6.5t19 0t20 -10q6 -4 9 -12t0.5 -23t-13.5 -31l-584 -684q-2 -2 -5 -6t-14 -11t-21.5 -9.5t-26.5 4t-31 23.5l-252 340q-1 2 -3 5t-5 12.5t-3.5 18.5t4 19.5t15.5 18.5q37 27 76 -8z" />
    <glyph glyph-name="jingjia" unicode="&#xe615;" 
d="M948 61l-454 382l24 24q29 29 31 70q3 1 3 2l96 59q9 12 8.5 27.5t-10.5 26.5l-167 167q-10 10 -26 11t-27 -9l-60 -96q0 -1 -1 -3q-41 -2 -70 -31l-91 -91q-29 -29 -31 -70q-2 -1 -3 -2l-96 -60q-9 -11 -8.5 -26.5t10.5 -26.5l167 -167q10 -11 26 -11.5t27 9.5l60 96
q1 1 1 3q41 2 70 31l27 27l407 -430q10 -11 23.5 -12.5t22.5 7.5l47 47q9 9 7 22.5t-13 23.5v0zM948 61zM573 5q0 -20 -14 -34t-34 -14h-412q-21 0 -35 14t-14 34v0q0 20 14 34.5t35 14.5h412q20 0 34 -14.5t14 -34.5v0v0zM573 5z" />
    <glyph glyph-name="guize-copy" unicode="&#xe605;" 
d="M909 -128h-800q-29 0 -50 22t-21 51v900q0 28 11.5 39.5t40.5 11.5h153v-77h-102q-9 0 -15 -4.5t-8 -14t-2.5 -15.5t-0.5 -17q-1 -767 0 -794q0 -13 2 -19t3.5 -7t9 0t11.5 1h742q16 0 21 4t5 21v820q0 14 -5 19.5t-21 5.5h-102v77h153q29 0 40.5 -11.5t11.5 -39.5v-896
q0 -29 -24 -53t-53 -24zM806 205h-588v77h588v-77zM218 538h588v-77h-588v77zM371 896h282v-77h-282v77z" />
    <glyph glyph-name="tubiao" unicode="&#xe611;" 
d="M166 678q0 21 15.5 36.5t36.5 15.5h588q21 0 36.5 -15.5t15.5 -36.5v-134h38v134q0 37 -26.5 63.5t-63.5 26.5h-588q-37 0 -63.5 -26.5t-26.5 -63.5v-230h38v230zM858 90q0 -21 -15 -36.5t-37 -15.5h-588q-22 0 -37 15.5t-15 36.5v134h-39v-134q0 -37 26.5 -63.5
t64.5 -26.5h588q38 0 64.5 26.5t26.5 63.5v230h-39v-230zM957 503q-5 7 -12.5 8.5t-13.5 -2.5l-352 -229l-192 192l-313 -174q-7 -4 -9.5 -11.5t1.5 -14.5t11.5 -9t14.5 1l288 160l193 -193l377 245q17 11 7 27z" />
    <glyph glyph-name="shengji" unicode="&#xe636;" 
d="M847 583l-287 287q-21 21 -51 21t-51 -21l-287 -287q-16 -16 -20 -37t4.5 -42t26.5 -33t40 -12h103v-219h51v271h-154q-14 0 -19.5 13t4.5 23l287 286q6 7 15 7t15 -7l286 -286q10 -10 5 -23t-20 -13h-153v-325q0 -3 -4 -3h-312v-52h312q23 0 39 16.5t16 38.5v273h102
q23 0 41 12t26.5 33t4 42t-19.5 37zM709 22q0 -13 -8.5 -21.5t-21.5 -8.5h-330q-12 0 -21 8.5t-9 21.5v0q0 12 9 21t21 9h330q13 0 21.5 -9t8.5 -21v0zM658 -98q0 -11 -6.5 -18t-16.5 -7h-248q-10 0 -16.5 7t-6.5 18v0q0 10 6.5 17t16.5 7h248q10 0 16.5 -7t6.5 -17v0z" />
    <glyph glyph-name="zhifu" unicode="&#xe7a1;" 
d="M926 719h-828q-15 0 -25.5 -11.5t-10.5 -28.5v-88h900v88q0 17 -10.5 28.5t-25.5 11.5zM445 336h69v73h-69v-73zM176 170h339v73h-339v-73zM400 409h-224v-73h224v73zM962 527v-440q0 -16 -10.5 -27t-25.5 -11h-828q-15 0 -25.5 11t-10.5 27v440h900z" />
    <glyph glyph-name="bangzhuzhongxin" unicode="&#xe6d9;" horiz-adv-x="1025" 
d="M639 163q-13 -19 -25 -32v-1v-2v-102q0 -22 -15 -37t-36 -15h-102q-21 0 -36 15t-15 37v102v2v1q-12 13 -25 32q-59 34 -94 92.5t-35 128.5q0 106 75 181t181 75t181 -75t75 -181q0 -70 -35 -128.5t-94 -92.5v0zM486 -77h52q10 0 17.5 -7.5t7.5 -18t-7.5 -18t-17.5 -7.5
h-52q-10 0 -17.5 7.5t-7.5 18t7.5 18t17.5 7.5v0zM973 333h-103q-51 0 -51 51t51 51h103q51 0 51 -51t-51 -51v0zM829 617q-19 -19 -45.5 -19t-45 18.5t-18.5 44.5t18 44l46 44q18 19 44.5 19t45.5 -18.5t19 -44.5t-19 -44l-45 -44v0zM512 691q-51 0 -51 51v103q0 51 51 51
t51 -51v-103q0 -51 -51 -51v0zM195 617l-45 44q-19 18 -19 44t19 44.5t45.5 18.5t44.5 -19l46 -44q18 -18 18 -44t-18.5 -44.5t-45 -18.5t-45.5 19v0zM205 384q0 -51 -51 -51h-103q-51 0 -51 51t51 51h103q51 0 51 -51v0z" />
    <glyph glyph-name="a80000" unicode="&#xe64b;" 
d="M512 725q-93 0 -171.5 -45.5t-124 -124t-45.5 -171.5t45.5 -171.5t124 -124t171.5 -45.5t171.5 45.5t124 124t45.5 171.5t-45.5 171.5t-124 124t-171.5 45.5zM646 364q10 0 17 -7t7 -17t-7 -17t-17 -7h-110v-121q0 -10 -7 -17t-17 -7t-17 7t-7 17v121h-110q-10 0 -17 7
t-7 17t7 17t17 7h110v57h-110q-10 0 -17 7.5t-7 17.5t7 17t17 7h110v6l-78 80v0v0h-1v1q-6 7 -6 16.5t7 16.5t16.5 7t16.5 -7l1 1v-1v0v0l68 -69l67 69q7 7 17 7t17.5 -7t7.5 -17t-7 -17l-78 -79v-7h110q10 0 17 -7t7 -17t-7 -17.5t-17 -7.5h-110v-57h110v0zM512 896
q-125 0 -233 -56t-179 -153l-31 18v0q-8 4 -16 1.5t-13 -9.5q-2 -4 -2 -10h-1l12 -116v0q1 -12 10.5 -17t19.5 0l1 -1l103 47v1q7 3 10 8q9 16 -7 28v0l-30 18q63 82 156 129.5t200 47.5q91 0 174 -35.5t143 -95.5t95.5 -143t35.5 -174t-35.5 -174t-95.5 -143t-143 -95.5
t-174 -35.5q-126 0 -231 64t-163 171l-58 -26q65 -124 186 -198.5t266 -74.5q104 0 199 40.5t163.5 109t109 163.5t40.5 199t-40.5 199t-109 163.5t-163.5 109t-199 40.5z" />
    <glyph glyph-name="yduifuxuankuangxuanzhong" unicode="&#xe639;" 
d="M832 831h-640q-52 0 -89.5 -37.5t-37.5 -89.5v-640q0 -52 37.5 -89.5t89.5 -37.5h640q52 0 89.5 37.5t37.5 89.5v640q0 52 -37.5 89.5t-89.5 37.5zM646 410q-48 -71 -99 -158t-78 -136.5t-27 -51.5l-250 282l64 70l154 -147q8 14 23.5 38.5t62.5 87t92.5 111t101.5 98
t89 74.5l33 26l20 -64q-1 0 -28.5 -31t-74 -88t-83.5 -111z" />
    <glyph glyph-name="yinlianzhifu" unicode="&#xe710;" 
d="M202 703h254q27 0 41.5 -19t8.5 -45l-119 -510q-6 -26 -29.5 -45t-49.5 -19h-255q-27 0 -41.5 19t-8.5 45l119 510q6 26 29.5 45t50.5 19zM435 703h293q7 0 12 -1.5t7 -5t3 -7.5t-0.5 -10.5t-2.5 -11.5t-3.5 -14t-4.5 -14l-118 -510q-2 -6 -4.5 -19.5t-4 -19t-5.5 -13
t-10.5 -10t-17.5 -2.5h-293q-26 0 -40.5 19t-8.5 45l119 510q6 26 29 45t50 19zM716 703h255q27 0 41.5 -19t8.5 -45l-119 -510q-6 -26 -29.5 -45t-50.5 -19h-254q-27 0 -41.5 19t-8.5 45l119 510q6 26 29.5 45t49.5 19zM674 242h24l7 23h-24zM693 305l-8 -27q9 5 14 6l12 2
l6 19h-24zM705 345l-8 -27q9 4 14 6l12 2l6 19h-24zM758 345l-31 -103h8l-6 -21h-8l-2 -7h-30l2 7h-60l6 19h6l32 105l6 21h30l-3 -11q8 6 16 8l51 3l-6 -21h-11zM771 366h33v-12q0 -3 5 -3h7l-6 -20h-18q-21 -2 -20 12zM776 272h-31l5 17h35l5 16h-34l6 20h96l-6 -20h-32
l-5 -16h32l-5 -17h-35l-7 -8h15l3 -22q1 -4 1 -5q1 -1 8 -1h4l-7 -21h-11h-7q-1 0 -8 3q-5 3 -6 8l-3 22l-16 -22q-9 -12 -24 -12h-22l6 19h9q2 0 6 2q3 1 5 4zM440 320h81l-6 -19h-32l-5 -17h33l-6 -20h-33l-9 -27q-1 -3 12 -3l16 2l-7 -22h-37q-3 0 -8 1q-4 1 -6 4
q-4 5 -2 9l10 36h-18l6 20h19l4 17h-18zM495 355h33l-6 -20h-46l-5 -5q-1 -1 -2.5 -1.5t-2.5 -0.5q-8 -4 -15 -4h-15l6 19h4q6 0 8 1q2 2 5 7l8 15h33zM558 321q10 9 25 11l26 1l3 11h-47zM602 313h-46l-3 -9h40h6v0zM542 366h29l-5 -15q9 7 16 10l20 4l46 1l-16 -52
q-3 -12 -7 -18q-3 -4 -8 -7q-6 -3 -11 -3q-4 -1 -14 -1h-44l-13 -41q-1 -6 -1 -7q2 -2 5 -2l19 2l-6 -23h-22h-16q-7 1 -9 2q-5 5 -5 7q0 3 2 11zM625 282l-3 -13q-2 -7 -5 -9q-6 -6 -15 -6h-16v-15q0 -2 2 -4q1 -1 2 -1h5l15 1l-7 -21h-17q-20 0 -24 3q-3 2 -3 8l1 55h28
l-1 -11h7q3 0 4.5 1t2.5 3l2 9h22zM232 541q-1 -2 -5.5 -24t-9 -42t-4.5 -21q-7 -28 -16 -35q-8 -7 -19 -7q-18 0 -19 17l-1 4l4 22q19 74 22 84v1q-42 0 -43 1l-1 -6l-19 -84l-2 -7l-3 -23q0 -10 4 -17q10 -18 48 -18q28 0 46 11q20 12 29 46l2 9q20 77 23 87v1
q-32 0 -36 1zM337 387q-16 1 -32 0v1l1.5 6.5t2.5 10.5l1 8q6 23 6 30q0 2 0.5 4t-1.5 3.5t-5 1.5t-10 -3q-1 -5 -7 -33q-2 -12 -5 -28l-2 -1q-16 1 -33 0v1q60 233 70 495l-53 -411l1 1q19 3 35 6l1 -2l-2 -9q6 4 8 5q9 5 20 5q14 0 18 -10q3 -8 -3 -34l-2 -9
q-4 -21 -7 -37zM389 405h-17q-4 0 -17 -1v1h-1q2 7 4 13q2 5 4 13q3 15 5 23q0 4 2 16h1v1q15 2 18 3q5 0 18 3v-1v-1q-37 -141 -43 -301l35 265q-2 -5 -3 -10l-1.5 -7.5t-0.5 -3.5q0 -2 -1 -5.5t-1 -6.5l-1 -1h-1zM471 450q-3 -15 -7 -21q-5 -6 -10 -6q-7 0 -8 10q0 5 3 14
q6 27 17 27q11 1 5 -24zM505 449q5 23 -4 34q-9 12 -31 12q-24 0 -38 -14q-12 -11 -17 -33q-8 -33 14 -42q8 -3 21 -3q25 0 40 16q10 10 15 30zM838 494q-16 -3 -36 -6l-1 -1v-1.5t-1 -2.5q-4 7 -11 10q-6 2 -16.5 -1.5t-19.5 -12.5q-13 -11 -18 -33q-7 -33 14 -41
q9 -4 18 -3q8 0 17 7l-1 -5l1 -1q15 1 34 0l1 1q5 27 10 52q3 13 9 36v2zM787 428q-4 -6 -13 -6q-7 0 -7 9q0 5 2 15q3 13 7 20t11 7q10 0 9 -17q-1 -1 -2 -8q-1 -3 -3 -13q-2 -5 -4 -7zM592 387q-16 1 -32 0l-1 1q1 3 2.5 9t1.5 8l2 8q5 23 6 30v4t-1.5 3.5t-4.5 1.5
t-10 -3q-1 -3 -7 -33q-2 -8 -6 -28l-1 -1q-16 1 -33 0v1q95 372 110 792q-37 -284 -74 -560l-20 -149l1 1l1 1q19 3 34 6l2 -2l-3 -9q5 3 8 5q10 5 21 5q14 0 18 -10q3 -8 -3 -34l-2 -9q-5 -21 -7 -37zM703 541h-11q-36 -1 -43 0l-1 -6l-10 -46l-25 -102h38q1 1 2.5 9.5
t3 15.5l1.5 7l5 20l3 3h2q45 0 63 14q19 14 25 40q2 7 2 13q0 11 -5 18q-10 13 -50 14zM717 493q-4 -16 -17 -23q-8 -4 -25 -4h-6l1 2q0 3 1.5 8t3.5 15t3.5 16.5l1.5 6.5l1 2v2h4l22 -2q14 -5 10 -23zM404 466q6 4 6.5 9.5t-4.5 8.5q-13 8 -28 -3q-7 -4 -7.5 -9.5t4.5 -8.5
q13 -8 29 3zM944 494l-1 1q-18 -3 -33 -5l-1 -1v-1v0v0q-6 -13 -11 -21.5t-9 -17.5v6l-2 39l-1 1q-25 -4 -33 -5l-1 -1v-1.5v-0.5v0q1 -8 3 -23q1 -4 2 -11.5t1 -11.5q3 -22 5 -38q-4 -6 -11 -18t-12 -20v0l-7 -12q-1 -1 -3 -2h-4h-4l-6 -20h20q16 0 23 13l12 21v0l1 2
l72 127v0z" />
    <glyph glyph-name="guangnaermorenzhuangtai" unicode="&#xe6ed;" 
d="M977 -35l-55 645q-3 30 -28 51t-59 21h-96q-8 90 -74 152t-155.5 62t-155 -62t-74.5 -152h-96q-34 0 -59 -21t-28 -51l-54 -645q-3 -38 22 -65q25 -28 64 -28h761q39 0 65 28q25 27 22 65zM509.5 831q63.5 0 111 -42.5t55.5 -106.5h-333q9 64 56 106.5t110.5 42.5z
M918 -67q-11 -11 -28 -11h-761q-17 0 -28 11q-10 12 -9 28l55 644q1 11 12 19t25 8h651q14 0 25 -8t12 -19l55 -644q1 -16 -9 -28zM564 430h52v-95h-50q-17 0 -17 -17.5t17 -17.5h50v-115h-65q-19 0 -21 -16q0 -18 19 -18h169q17 0 17 18q0 16 -17 16h-61v115h46
q17 0 17 17.5t-17 17.5h-46v95h55q18 0 18 17q0 16 -18 16h-150q-17 0 -17 -18q2 -15 19 -15zM395 349q13 -13 33 -5q3 1 10 5q21 12 29 18q10 -21 14 -42q-30 -33 -74 -53q-15 -8 -8 -23q8 -16 25 -10q26 13 65 43q8 -79 -16 -98q-15 -11 -42 1q-17 3 -21 -13
q-3 -17 14 -21q21 -6 38 -6q24 0 40 13q40 35 23 158q-5 48 -24 79q24 25 39 51q8 19 -7 29v0q-19 6 -29 -11v0q-11 -19 -26 -36q-17 19 -42 40q-17 11 -32 0q-10 -14 4 -27q20 -16 38 -40q-23 -16 -41 -26q-10 -5 -12 -12q-2 -6 2 -13v-1zM722 119h-237q-75 3 -97 43v111
q2 21 -8 31q-11 11 -34 9h-47q-17 0 -19 -18q2 -17 19 -17h40q9 0 9 -10v-101q0 -32 -46 -54q-10 -5 -12 -12t4 -15q8 -9 18 -9q6 0 13 3q33 17 46 42q37 -37 112 -37h239q17 0 17 16q0 18 -17 18v0zM296 424q43 -39 56 -58q10 -10 19 -10q5 0 10 3h1q13 12 0 29
q-31 39 -59 59v1q-14 9 -27 -1q-7 -5 -7 -11q1 -7 7 -12z" />
    <glyph glyph-name="baozhengjin_01" unicode="&#xe601;" 
d="M512 704v192q139 0 257 -68.5t186.5 -186.5t68.5 -257h-192q0 133 -93.5 226.5t-226.5 93.5zM0 384q0 128 58.5 239t160.5 181.5t227 86.5l2 -194q-111 -23 -183.5 -110.5t-72.5 -202.5t72 -202.5t182 -110.5l2 -194q-125 16 -227.5 87t-161.5 181.5t-59 238.5v0z
M825 320h194q-16 -126 -87 -228t-181.5 -161t-238.5 -59v192q115 0 202.5 72t110.5 182v2zM691 584l-120 -204h95v-45h-110v-62h110v-46h-110v-90h-56v91h-115v45h114v62h-114v45h98l-119 204h64q83 -152 101 -193h1q52 122 143 213l-42 -20h60z" />
    <glyph glyph-name="baozhengjin" unicode="&#xe6b7;" 
d="M924 750q-25 23 -60 23h-6q-6 -1 -25 -1q-66 0 -119 12q-12 3 -26 9q-25 12 -57 35q-8 5 -34.5 26t-29.5 23q-22 14 -49 14t-49 -14l-54 -45q-4 -3 -7 -6q-44 -31 -79 -41q-2 0 -4 -1q-53 -12 -120 -12h-24l-1 1h-5h-1q-35 0 -60 -23q-29 -26 -29 -64v-150
q0 -360 200 -542q64 -58 143 -91q41 -17 74 -23q8 -1 16 -1t15 1q33 6 75 23q79 33 143 91q202 182 202 542v150q0 38 -29 64zM687 412v-55h-133v-74h133v-55h-133v-109h-68v109h-137v55h137v74h-137v55h117l-142 244h76q100 -182 122 -231h1q7 20 40 81l82 150h72
l-144 -244h114z" />
    <glyph glyph-name="changjianwenti" unicode="&#xe60e;" 
d="M512.5 850q-95.5 0 -183 -37.5t-150.5 -100.5t-100.5 -150t-37.5 -183t37.5 -183t100.5 -150t150.5 -100.5t182.5 -37.5q84 0 162.5 29t142.5 83l1 1v1q-6 32 -51 32h-3v0q-111 -86 -252 -86q-111 0 -205.5 55t-149.5 150t-55 206t55 206t149.5 150t206 55t206 -55
t149.5 -150t55 -206q0 -128 -72 -233l-1 -1l1 -2q13 -25 39 -25q7 0 16 2v1h1q77 118 77 258q0 96 -37.5 183t-100.5 150t-150.5 100.5t-183 37.5zM570 365l1 1q25 21 47 44q34 34 42 68q6 26 1 52q-7 45 -42.5 74t-88.5 33q-11 1 -22 1v0q-12 0 -21 -1q-55 -5 -90.5 -41.5
t-35.5 -87.5q0 -13 9 -22.5t22 -9.5t22.5 9.5t9.5 22.5q0 28 20.5 46t48.5 21h14h1h17q31 -3 50.5 -17.5t23.5 -38.5q1 -5 1 -11q0 -8 -1 -15q-5 -18 -25 -39q-20 -20 -43 -39v0q-16 -13 -23 -21q-42 -46 -46 -127v-1q0 -12 8 -21q8 -10 21 -11h2q13 0 22 9t10 21
q2 58 30 87q4 5 15 14zM490.5 214q-17.5 0 -30 -12t-12.5 -29.5t12.5 -30t30 -12.5t30 12.5t12.5 30t-12.5 29.5t-30 12z" />
    <glyph glyph-name="xieyi" unicode="&#xe614;" 
d="M843 474q-1 8 -5 20q-4 10 -14 22q-20 26 -22 60q-1 29 -21 52q-12 15 -38 27q-7 2 -15 8q-13 10 -27 31q-7 12 -16 20q-27 24 -63 22q-13 -1 -22 0q-22 3 -40 14q-23 15 -48 14q-20 0 -29 -4q-10 -4 -21 -11q-23 -13 -50 -13q-1 0 -12 0.5t-11 -0.5q-36 -4 -59 -31
q-3 -4 -7.5 -11.5t-6.5 -9.5q-14 -19 -32 -28q-1 -1 -8 -4t-10 -5q-34 -19 -42 -58q-1 -4 -1.5 -8t-1 -9t-0.5 -8q-3 -25 -19 -45q-15 -19 -19 -34q0 -2 -0.5 -7t-1.5 -7v-21q2 -16 5 -22q1 -2 3 -6.5t2 -6.5q7 -15 7 -34q0 -5 -3 -23q-7 -46 26 -78q2 -2 4.5 -4t5.5 -4.5
t5 -3.5q17 -15 25 -37q1 -1 3.5 -9t4.5 -11q3 -7 -1 -14q-19 -30 -66 -111q-3 -6 -2 -7.5t7 -1.5h91q7 0 11 -7q16 -24 43 -65q4 -5 6 -5t5 6q9 15 28 47.5t29 50.5q3 5 9 3q17 -5 35 -2q4 0 25 6q12 3 24 3q14 0 32 -6q25 -8 48 -1q5 1 8 -4q10 -16 28.5 -48.5t28.5 -48.5
q4 -6 5.5 -6t5.5 5q32 49 41 64q6 8 15 8q21 -1 90 0q9 0 5 7q-6 11 -19 33t-20 34q-3 5 -8.5 14.5t-10 17.5t-8.5 14q-3 5 -1 8q2 4 8 21q4 12 8 19q9 15 25 28q17 13 25 28q10 19 11 40q0 8 -3 25q-1 11 -1 24q1 14 11 37q6 12 6 22q1 14 0 25zM512 161q-112 0 -191 79
t-79 191t79.5 191t191 78.5t190.5 -79.5t79 -190.5t-79 -190.5t-191 -79zM512 672q-100 0 -170.5 -70.5t-71 -170.5t70.5 -171t171 -71t170.5 71t70.5 171t-70.5 170.5t-170.5 70.5zM648 467q-41 -40 -61 -59q-3 -3 -2 -7q4 -23 13 -85v-4l-65 35t-14 8q-3 1 -6 0
q-31 -16 -76 -39q-4 -1 -5 -1q7 42 8 45q5 32 8 44q0 2 -2 5l-60 60l-4 4q24 4 25 4q50 7 66 9q2 0 4 4q5 11 11.5 23.5t14.5 28t13 23.5q0 1 2 5q31 -64 35 -73q6 -12 19 -14q9 -1 79 -12q0 -1 -3 -4z" />
    <glyph glyph-name="zijin" unicode="&#xe676;" 
d="M440 742h144q37 0 87.5 36t50.5 72q0 11 -13 19t-25 10l-13 2q-87 15 -159 15q-32 0 -71.5 -5t-63.5 -10l-24 -5q-2 0 -5.5 -0.5t-12 -2t-15.5 -3.5t-12.5 -7.5t-5.5 -12.5q0 -37 49 -72.5t89 -35.5zM594 712h-164q-75 -14 -144.5 -59.5t-122.5 -113t-85 -159.5t-32 -191
q0 -66 26.5 -120.5t71 -90.5t105 -60.5t126.5 -35t137 -10.5t137 11t126.5 36t105 61t71 90t26.5 119q0 99 -32 191t-85 159.5t-122.5 113t-144.5 59.5zM655 251q16 0 26 -13.5t10 -33t-10 -32.5t-26 -13h-97v-82q0 -15 -13.5 -25.5t-32.5 -10.5q-18 0 -29.5 11.5
t-11.5 24.5v82h-107q-16 0 -26 13t-10 32.5t10 33t26 13.5h107v46h-107q-16 0 -26 13.5t-10 32.5q0 16 10.5 31t25.5 15h102l-108 103q-11 11 -8.5 27t14.5 24q11 11 27 11t24 -11l97 -98l97 98q12 11 28.5 11t28.5 -11q12 -12 14 -27.5t-9 -23.5l-108 -113h92
q16 0 26 -13.5t10 -32.5q0 -17 -10.5 -31.5t-25.5 -14.5h-102v-46z" />
    <glyph glyph-name="dizhi" unicode="&#xe6ff;" 
d="M505 896q-111 0 -205 -55t-149 -149t-55 -205q0 -64 34 -147t78.5 -152.5t96 -136.5t78.5 -98t34 -38q36 -43 88.5 -43t88.5 43q13 14 34.5 39t77 96.5t97.5 138.5t76.5 150.5t34.5 147.5v0q0 111 -54.5 205t-149 149t-205.5 55zM505.5 311q-78.5 0 -134 55t-55.5 133.5
t55.5 134t134 55.5t134 -55.5t55.5 -134t-55.5 -133.5t-134 -55z" />
    <glyph glyph-name="shoucang1" unicode="&#xe623;" 
d="M512 755l92 -283h298l-241 -176l92 -283l-241 175l-241 -175l92 283l-241 176h298zM902 472zM512 799q-14 0 -25.5 -8.5t-16.5 -21.5l-82 -253h-266q-14 0 -26 -8.5t-16 -22t0 -27.5t16 -22l215 -156l-82 -253q-4 -14 0 -27.5t16 -22t26 -8.5v0v0q14 0 26 8l215 157
l215 -157q12 -8 26 -8v0v0q14 0 26 8.5t16 22t0 27.5l-82 253l215 156q5 3 9 8q9 12 9 27v2q0 17 -13 30t-31 13h-266l-82 253q-5 13 -16.5 21.5t-25.5 8.5z" />
    <glyph glyph-name="zixun" unicode="&#xe683;" 
d="M1019 0q-10 -42 -44.5 -69t-78.5 -27q-15 0 -32 5v-5h-800q-26 0 -45 19t-19 45v832q0 26 19 45t45 19h704q26 0 45 -19t19 -45v-256h144q20 0 34 -14t14 -34v-496h-5zM768 496v240q0 26 -19 45t-45 19h-576q-27 0 -45.5 -18.5t-18.5 -45.5v-704q0 -26 19 -45t45 -19h640
v528zM960 110v354q0 7 -4.5 11.5t-11.5 4.5h-96q-7 0 -11.5 -4.5t-4.5 -11.5v-432q0 -26 19 -45t45 -19t45 19t19 45v78zM624 256h-416q-7 0 -11.5 4.5t-4.5 11.5v32q0 7 4.5 11.5t11.5 4.5h416q7 0 11.5 -4.5t4.5 -11.5v-32q0 -7 -4.5 -11.5t-11.5 -4.5zM624 576h-224
q-7 0 -11.5 4.5t-4.5 11.5v32q0 7 4.5 11.5t11.5 4.5h224q7 0 11.5 -4.5t4.5 -11.5v-32q0 -7 -4.5 -11.5t-11.5 -4.5zM272 576h-32q-20 0 -34 14t-14 34v32q0 20 14 34t34 14h32q20 0 34 -14t14 -34v-32q0 -20 -14 -34t-34 -14zM208 480h352q7 0 11.5 -4.5t4.5 -11.5v-32
q0 -7 -4.5 -11.5t-11.5 -4.5h-352q-7 0 -11.5 4.5t-4.5 11.5v32q0 7 4.5 11.5t11.5 4.5zM208 160h352q7 0 11.5 -4.5t4.5 -11.5v-32q0 -7 -4.5 -11.5t-11.5 -4.5h-352q-7 0 -11.5 4.5t-4.5 11.5v32q0 7 4.5 11.5t11.5 4.5z" />
    <glyph glyph-name="weixinzhifu" unicode="&#xe60c;" horiz-adv-x="1025" 
d="M373 264q-7 -4 -16 -4q-19 0 -29 17l-3 5l-94 204q-1 3 -1 8q0 7 5 12t12 5q5 0 10 -3l110 -79q11 -8 28 -8q6 0 18 2l517 232q-71 84 -181 132.5t-237 48.5q-139 0 -257 -57t-186.5 -155.5t-68.5 -214.5q0 -95 47 -179t130 -143q15 -10 15 -28q0 -2 -1 -5.5t-1 -4.5
q-3 -12 -9 -34.5t-10 -36.5t-4 -15q-3 -9 -3 -13q0 -7 5 -12.5t12 -5.5q5 0 11 3l112 64q15 8 28 8q6 0 15 -3q84 -24 166 -24q139 0 257 57.5t186.5 156t68.5 213.5q0 108 -58 198l-591 -338z" />
    <glyph glyph-name="jilu" unicode="&#xe604;" 
d="M824 829h-89v67h-446v-67h-89q-50 0 -80.5 -33.5t-30.5 -77.5v-735q0 -43 30.5 -77t80.5 -34h624q50 0 80.5 34t30.5 77v735q0 44 -30.5 77.5t-80.5 33.5zM556 651h201v-44h-201v44zM334 852h356v-90h-356v90zM801 50h-578v45h578v-45v0zM801 184h-578v44h578v-44v0z
M801 317h-578v45h578v-45v0zM801 451h-578v44h578v-44v0z" />
    <glyph glyph-name="yuechi" unicode="&#xe61f;" 
d="M750 135q0 -109 -77 -186t-186 -77t-186 77t-77 186q0 98 63.5 171t158.5 89v473q0 12 8 20t19.5 8t19.5 -8t8 -20v-55h138q12 0 20 -8t8 -20t-8 -20t-20 -8h-138v-82h138q12 0 20 -8.5t8 -20t-8 -19.5t-20 -8h-138v-222q104 -5 176.5 -81t72.5 -181zM280 135
q0 -86 60.5 -146.5t146.5 -60.5t147 60.5t61 146.5t-61 147t-147 61t-146.5 -61t-60.5 -147z" />
    <glyph glyph-name="liucheng" unicode="&#xe607;" 
d="M582 829h-134q-41 0 -70 -29.5t-29 -70t29 -70t70 -29.5h134q41 0 70.5 29.5t29.5 70t-29.5 70t-70.5 29.5zM582 694h-134q-14 0 -23 10t-9 22q0 14 9.5 23t22.5 9h134q14 0 23 -9.5t9 -22t-9 -22.5t-23 -10zM582 496h-134q-41 0 -70 -29t-29 -70t29 -70t70 -29h134
q41 0 70.5 29t29.5 70t-29.5 70t-70.5 29zM582 362h-134q-14 0 -23 9.5t-9 22.5t9.5 22.5t22.5 9.5h134q14 0 23 -10t9 -22.5t-9 -22t-23 -9.5zM582 160h-134q-41 0 -70 -29t-29 -70t29 -70t70 -29h134q41 0 70.5 29t29.5 70t-29.5 70t-70.5 29zM582 26h-134q-14 0 -23 9.5
t-9 22.5t9.5 22.5t22.5 9.5h134q14 0 23 -10t9 -22.5t-9 -22t-23 -9.5zM214 93q-57 0 -95.5 38.5t-38.5 96t38.5 96t95.5 38.5h68v67h-68q-84 0 -142.5 -59t-58.5 -143t58.5 -142.5t142.5 -58.5v-68l100 100l-100 102v-67zM816 762h-67v-68h67q58 0 96 -38t38 -96t-38 -96
t-96 -38v67l-99 -99l99 -100v68q84 0 143 58.5t59 142.5q0 82 -59 140.5t-143 58.5z" />
    <glyph glyph-name="guanyuwomen" unicode="&#xe6b8;" 
d="M512 -64q-87 0 -169 33q-80 33 -143 93q-65 63 -100.5 145.5t-35.5 173.5q0 93 35 177q34 82 97 144q61 62 140 95q81 35 169 35h21q98 -5 184 -47q83 -41 143 -111q59 -68 86 -154q28 -89 18 -183q-9 -86 -49 -161q0 -1 -2 -4q-5 -9 -7 -13q-17 -23 -34 -23q-8 0 -16 4
q-25 14 -11 52q4 11 13 34q27 66 33 100q17 99 -15.5 189.5t-107 154t-174.5 85.5q-38 8 -77 8q-126 0 -228.5 -78t-134.5 -198q-31 -118 1 -218.5t124 -176.5q108 -88 233 -88q84 0 173 41q6 2 16 8q11 6 16 8q10 4 18 4q16 0 26 -15q18 -26 -11 -47q-13 -10 -39 -23
q-92 -44 -192 -44zM475 154q-23 0 -33 12.5t-5 34.5q8 37 29 109l3 12q11 39 -6 66q-11 16 -7 29q4 14 26 23q11 5 29 9q10 2 19 2q19 0 27 -10q10 -13 4 -41q-5 -25 -18 -74q-11 -38 -15 -56q-6 -24 1 -40q17 -37 10 -51t-46 -22q-5 -1 -14 -3v0h-4v0zM547 532
q-16 0 -28 11t-13 27q-1 18 11 32t29 14h1q17 0 30 -13.5t12.5 -29.5t-12.5 -28.5t-28 -12.5h-2z" />
    <glyph glyph-name="weituo" unicode="&#xe60a;" 
d="M886 69q-19 -28 -42 -46q-39 -31 -99 -52q-48 -16 -93 -23q-41 -5 -55 -7q-22 -2 -48 -3q-41 -2 -62 -1q-18 0 -58 4q-30 3 -45 6q-41 7 -75 15q-41 10 -81 31q-35 17 -59 40q-31 29 -55 81q-18 41 -28 84q-7 32 -12 65q-3 18 -7 59q-1 15 -2 39q-1 37 -1 51q1 37 3 63
q4 43 22 108q11 43 27 78q16 33 36 58t54 46q36 22 84 37q46 14 86 20q34 5 49 7q25 2 46 3q51 1 75 1q10 -1 63 -5q50 -5 106 -20q37 -10 69 -25q31 -14 54 -31q33 -25 56 -63q23 -42 36 -87q3 -9 8.5 -25t8.5 -30q4 -18 9 -55q2 -14 2 -32q2 -75 2 -97q0 -3 -4 -58v-4
q0 -6 -1 -7t-7 0q-55 13 -103 34q-22 10 -112 53q-23 12 -41 11q-17 0 -40 -6q-14 -3 -46 -11t-49 -11q-28 -6 -98 -19q-10 -2 -40 -5q-9 -1 -10 -14q-3 -21 10 -39t33 -24q9 -3 27 -3q27 -1 48 0q11 0 57 4q9 0 36 3q13 1 21 2q16 2 11 -16q-4 -15 -21 -27q-25 -17 -72 -32
q-31 -10 -44 -12q-18 -2 -50 -1q-1 0 -38 5q-22 3 -48 17q-30 17 -59 29q-32 15 -77 31q-24 9 -43 8q-20 0 -30.5 -12t-9.5 -32q0 -2 4 -5q68 -44 88 -57q16 -10 46.5 -28.5t45.5 -27.5q7 -5 21.5 -14.5t19.5 -13.5q44 -28 70 -36q23 -7 43 -3q41 8 128 25q6 1 33.5 6.5
l42.5 8.5q11 2 31 4.5t29 4.5q18 3 57 -6q8 -1 63 -15zM440 540h-169q-7 0 -14 -2q-18 -6 -25 -25.5t0 -36.5q11 -27 41 -27h310q16 0 33 1q14 1 24 14q12 15 9 38q-2 17 -14 28q-11 10 -28 10h-167zM440 687q-131 0 -168 -1q-7 0 -13 -1q-19 -5 -26.5 -25t-0.5 -38
q10 -27 41 -27h319q11 0 23 1q19 2 29 21q8 14 5 31q-2 19 -15 29q-11 9 -27 9q-28 1 -167 1z" />
    <glyph glyph-name="kefu" unicode="&#xe616;" 
d="M516 126q6 0 13 1q32 3 57 24t36 52q1 5 -4 7.5t-8 -2.5q-2 -3 -6.5 -8t-26 -15t-51.5 -14q-15 -2 -28 -2q-47 0 -68 18q-4 4 -8 0.5t-1 -8.5q15 -25 40.5 -39t54.5 -14zM872 537h-0.5h-0.5q-30 127 -132 210.5t-234 83.5q-136 0 -239.5 -87.5t-129.5 -220.5
q-24 -5 -40.5 -24.5t-16.5 -45.5v-139q0 -29 20.5 -50t49.5 -21q33 0 54 27q23 -62 68 -109.5t105 -73.5l4 6t3.5 3t3.5 -2q-24 18 -57 68.5t-42 114.5q-5 32 15 60t49 33q28 6 88.5 18t92.5 18q57 10 81 63q9 19 12 49q1 6 8 6q3 0 6 -3l1 1q71 -102 79 -193
q6 -78 -6.5 -127t-61.5 -94v0q-2 -2 -2 -4q0 -3 3 -5l0.5 -0.5l0.5 -0.5h2h1q1 1 2 1.5l1 0.5q54 30 94 78t59 107q16 -24 45 -30q-22 -101 -105 -163t-198 -72q-7 17 -23 27.5t-35 10.5q-25 0 -43.5 -17.5t-18.5 -42.5t18 -43t44 -18q21 0 37 12t22 30q133 11 228 86
t116 194q20 8 32 26t12 40v141q0 29 -21 50t-51 21zM808 496q-35 94 -117.5 153t-185.5 59q-102 0 -184.5 -58.5t-117.5 -151.5l-8 8q20 113 107.5 188t202.5 75t202 -74.5t108 -186.5q-5 -6 -7 -12zM376 87v0v0z" />
    <glyph glyph-name="huiyuan" unicode="&#xe606;" horiz-adv-x="1171" 
d="M1071 463q-9 0 -18 2l2 -2l-63 -348l-812 -11l-52 363q-14 -4 -28 -4q-41 0 -70.5 29.5t-29.5 71t29.5 71t71 29.5t71 -29.5t29.5 -70.5q0 -24 -11 -46l201 -76l156 261q-25 11 -43.5 38t-18.5 55q0 41 29.5 70.5t71 29.5t71 -29.5t29.5 -70.5q0 -29 -19 -56.5t-46 -37.5
l160 -271l198 94q-8 18 -8 38q0 42 29.5 71.5t71 29.5t70.5 -29.5t29 -71t-29 -71t-71 -29.5zM992 -22q-28 -40 -63 -74q-37 -31 -63 -32h-570q-64 41 -85 64q-10 11 -19.5 29.5t-11.5 33.5v10h812v-31z" />
    <glyph glyph-name="sousuo_sousuo" unicode="&#xe647;" 
d="M1011 -52l-183 182q110 133 110 299q0 95 -37.5 182t-100.5 149t-149 99t-180 37t-181 -37.5t-150.5 -100.5t-101.5 -150t-38 -182.5t37.5 -182t100 -149t149 -99t180.5 -36.5q84 0 161 28.5t138 80.5l183 -182q13 -14 30 -14t28 14q13 13 14 30.5t-10 31.5zM467 35
q-106 0 -196.5 52.5t-144 142.5t-53.5 195q0 106 52.5 196t143.5 142.5t198 52.5q106 0 197 -52.5t144 -142.5t53 -196q0 -105 -52.5 -195t-143 -142.5t-198.5 -52.5z" />
    <glyph glyph-name="liaotianliebiaozuixiaohua" unicode="&#xe608;" 
d="M914 423q0 -113 -90.5 -200t-230.5 -110l-58 -75q-9 -11 -23.5 -11t-23.5 11l-58 75q-140 23 -230.5 110t-90.5 200q0 87 54 160t146.5 115.5t201.5 42.5t202 -42.5t147 -115.5t54 -160zM156 424q0 -99 82.5 -175t210.5 -93q12 -2 20 -12l44 -55l43 55q7 10 19 12
q128 17 211 93t83 175q0 74 -48 137t-130 100t-178.5 37t-179 -36.5t-130 -99.5t-47.5 -138zM590 409q0 -22 -17 -37.5t-40.5 -15.5t-40.5 15.5t-17 37.5t17 37.5t40.5 15.5t40.5 -15.5t17 -37.5zM719 462q24 0 40.5 -15.5t16.5 -37.5t-16.5 -37.5t-40.5 -15.5t-40.5 15.5
t-16.5 37.5t16.5 37.5t40.5 15.5zM355 356q-24 0 -41 15.5t-17 37.5t17 37.5t41 15.5t40.5 -15.5t16.5 -37.5t-16.5 -37.5t-40.5 -15.5z" />
    <glyph glyph-name="baozhengjinguanli-zhuanhuan" unicode="&#xe60b;" 
d="M582 172q0 -45 -57 -76.5t-138 -31.5t-138 31.5t-57 76.5v42q0 -45 57 -76t138 -31t138 31.5t57 76.5v-43zM582 247q0 -45 -57 -76.5t-138 -31.5t-138 31.5t-57 76.5v42q0 -44 57 -75.5t138 -31.5t138 31.5t57 76.5v-43zM387 214q-81 0 -138 31.5t-57 76t57 76t138 31.5
t138 -31.5t57 -76t-57 -76t-138 -31.5zM832 296q0 -44 -57 -75.5t-138 -31.5h-17v26q0 6 -3 12q1 2 1 5h18q81 0 138 31.5t57 75.5zM832 372q0 -45 -57 -76.5t-138 -31.5q-12 0 -17 1v25q0 7 -3 12q1 2 1 6q6 -1 18 -1q81 0 138 31.5t57 76.5zM832 446q0 -44 -57 -75.5
t-138 -31.5h-19q-5 24 -19 45q16 -2 38 -2q81 0 138 31.5t57 75.5v-43zM832 521q0 -44 -57 -75.5t-138 -31.5q-43 0 -81 9q-30 19 -72 31q-42 30 -42 67v43q0 -45 57 -76t138 -31t138 31.5t57 75.5v-43zM637 488q-81 0 -138 31.5t-57 76t57 76t138 31.5t138 -31t57 -76
t-57 -76.5t-138 -31.5z" />
    <glyph glyph-name="jilu1" unicode="&#xe60d;" 
d="M558 149l129 48l7 8l-81 81l-7 -8zM721 232l-81 81l202 202l81 -81zM977 542l-27 27q-12 11 -27.5 11t-27.5 -11l-27 -28l81 -80l27 28q12 10 12 26t-11 27zM704 173l-207 -75l78 204l283 283l2.5 2.5t2.5 1.5v1l-187 -1q-36 0 -61 25t-25 60v220v2h-439
q-33 0 -56.5 -23.5t-23.5 -56.5v-864q0 -33 23.5 -56.5t56.5 -23.5h632q33 0 56.5 23.5t23.5 56.5v380zM190 452h201q14 0 24.5 -10.5t10.5 -24.5t-10.5 -24.5t-24.5 -10.5h-201q-14 0 -24.5 10.5t-10.5 24.5t10.5 24.5t24.5 10.5zM190 331h201q14 0 24.5 -10.5t10.5 -24.5
q0 -15 -10.5 -25t-24.5 -10h-201q-14 0 -24.5 10.5t-10.5 24.5t10.5 24.5t24.5 10.5zM190 218h201q14 0 24.5 -10.5t10.5 -24.5t-10.5 -24.5t-24.5 -10.5h-201q-14 0 -24.5 10.5t-10.5 24.5t10.5 24.5t24.5 10.5zM711 63q14 0 24 -10t10 -24q0 -15 -10 -25t-24 -10h-521
q-15 0 -25 10t-10 24.5t10 24.5t25 10h521z" />
    <glyph glyph-name="danxuankuangxuanzhong" unicode="&#xe610;" 
d="M512 896q-140 0 -257.5 -68.5t-186 -186t-68.5 -257.5t68.5 -257.5t186 -186t257.5 -68.5t257.5 68.5t186 186t68.5 257.5t-68.5 257.5t-186 186t-257.5 68.5zM666 414q-124 -183 -235 -395l-284 321l72 81l174 -167q10 16 28 44t71.5 99.5t105.5 126t116 111t102 85.5
l38 29l21 -72l-30.5 -35t-83.5 -101t-95 -127z" />
    <glyph glyph-name="danxuankuangweixuan" unicode="&#xe613;" 
d="M512 -128q-138 0 -256 69t-187 187t-69 256t69 256t187 187t256 69t256 -69t187 -187t69 -256t-69 -256t-187 -187t-256 -69zM512 870q-99 0 -189 -38.5t-155 -103.5t-103.5 -155t-38.5 -189t38.5 -189t103.5 -155t155 -103.5t189 -38.5t189 38.5t155 103.5t103.5 155
t38.5 189t-38.5 189t-103.5 155t-155 103.5t-189 38.5z" />
  </font>
</defs>
</svg>
